<svg xmlns="http://www.w3.org/2000/svg" width="150" height="46" viewBox="0 0 150 46"><defs><style>.a,.b,.c{fill:#123f87;}.a{opacity:0.1;}.b{fill-rule:evenodd;}.c{font-size:14px;font-family:Montserrat-Bold, Montserrat;font-weight:700;letter-spacing:0.025em;}</style></defs><g transform="translate(-468 -1374)"><rect class="a" width="150" height="46" rx="4" transform="translate(468 1374)"/><path class="b" d="M428.932,523a1.993,1.993,0,0,0,1.952-1.608l1-5A2,2,0,0,0,429.927,514h-9.956v-1a1,1,0,0,0-1-1H416.98a1,1,0,0,0,0,2h1v10a2,2,0,1,0,1.991,2h6.969a1.992,1.992,0,1,0,1.992-2h-8.961v-1Zm1-7-1,5h-8.961v-5h9.956Z" transform="translate(72.029 877)"/><text class="c" transform="translate(513.5 1401.5)"><tspan x="0" y="0">Add To Cart</tspan></text></g></svg>